<svg width="23" height="23" viewBox="0 0 23 23" fill="none" xmlns="http://www.w3.org/2000/svg">
<path d="M11.5 23C17.8513 23 23 17.8513 23 11.5C23 5.14873 17.8513 0 11.5 0C5.14873 0 0 5.14873 0 11.5C0 17.8513 5.14873 23 11.5 23Z" fill="#F0F0F0"/>
<path d="M22.9027 10H13.0001H13V0.0973457C12.509 0.0334219 12.0084 0 11.5 0C10.9916 0 10.491 0.0334219 10 0.0973457V9.99992V9.99997H0.0973457C0.0334219 10.491 0 10.9916 0 11.5C0 12.0085 0.0334219 12.509 0.0973457 13H9.99992H9.99997V22.9027C10.491 22.9666 10.9916 23 11.5 23C12.0084 23 12.509 22.9666 13 22.9027V13.0001V13H22.9027C22.9666 12.509 23 12.0085 23 11.5C23 10.9916 22.9666 10.491 22.9027 10Z" fill="#D80027"/>
<path d="M6.9566 5.39507V3.83331H5.39489V5.39507H3.83313V6.95679H5.39489V8.5185H6.9566V6.95679H8.51831V5.39507H6.9566Z" fill="#D80027"/>
<path d="M17.6051 5.39507V3.83331H16.0434V5.39507H14.4817V6.95679H16.0434V8.5185H17.6051V6.95679H19.1669V5.39507H17.6051Z" fill="#D80027"/>
<path d="M6.9566 16.0432V14.4814H5.39489V16.0432H3.83313V17.6049H5.39489V19.1666H6.9566V17.6049H8.51831V16.0432H6.9566Z" fill="#D80027"/>
<path d="M17.6051 16.0432V14.4814H16.0434V16.0432H14.4817V17.6049H16.0434V19.1666H17.6051V17.6049H19.1669V16.0432H17.6051Z" fill="#D80027"/>
</svg>
